<svg xmlns="http://www.w3.org/2000/svg" xml:space="preserve" viewBox="0 0 317.49999 105.83333">
	<g transform="translate(18.461243,-42.259676)">
		<path fill="none" stroke="#ab94fc" stroke-width="3.6"
			d="m 241.49675,77.357807 c 0,0 -1.60055,-4.819005 -8.18186,-4.358795 -3.77245,0.26379 -7.32064,3.301875 -9.69692,8.062145 -3.09872,6.20749 -3.45483,16.649063 4.50136,16.092713 11.84931,-0.82859 13.58168,-18.869203 13.73216,-25.736973 4.25321,24.4259 -7.00766,63.725453 -16.50397,65.375523 -23.08745,4.01164 -50.42225,-9.90099 -41.48069,-20.22863 5.94183,-6.86291 91.37543,-22.666583 91.37543,-22.666583 M 188.61712,66.275639 146.64078,70.779518 M 88.690024,100.70216 c 0,0 1.313259,6.10974 5.763813,5.79852 4.450566,-0.31121 18.051963,-13.626003 19.733153,-18.839873 1.31147,-4.06727 -8.34193,-10.03845 -14.201597,0.80235 -4.851292,8.97519 -1.413872,17.745953 6.225547,17.204143 11.31175,-0.80225 19.54236,-24.576343 19.54236,-24.576343 8.56206,2.87496 19.30122,22.233303 4.10095,22.934273 -12.35513,0.56977 -0.33978,-12.35425 3.28207,-17.03082 2.83486,-3.66041 13.00697,-10.266094 14.02212,-23.617844 -3.77109,26.347366 -6.4309,39.888314 4.13674,39.149374 6.36683,-0.4452 5.30559,-18.801371 3.84363,-24.060325 0,0 13.884,-0.68896 15.71825,4.067645 2.46662,6.39645 -8.12133,19.19269 2.00463,18.4846 6.03124,-0.42175 9.98456,-26.359392 9.98456,-26.359392 0,0 -5.07694,25.710772 2.45597,25.489462 7.23513,-0.212551 2.55547,-23.970241 12.40239,-24.658805 5.55788,-0.388645 -0.0445,24.10011 -0.0445,24.10011 0,0 5.67012,-24.49349 13.9389,-25.0717 12.01367,-0.84008 -4.68656,24.119269 6.05662,23.368029 4.58279,-0.32046 5.07884,-3.265731 5.07884,-3.265731 M 92.456271,86.512687 c -9.676752,-8.17772 -21.493823,7.76802 -19.844094,14.802043 1.080619,4.60748 4.928496,6.35075 8.817074,6.07884 12.643908,-0.88415 12.536771,-40.29743 12.536771,-40.29743 m -36.59161,21.539899 10.482864,-3.503242 c 0,0 -9.834358,23.915373 -0.490855,23.262013 4.683949,-0.32753 5.797046,-5.43639 5.797046,-5.43639 M 8.345066,74.407307 22.030977,72.126327 c 0,0 -8.982179,40.048843 4.025737,39.139253 10.219409,-0.7146 16.126127,-24.901313 16.126127,-24.901313 0,0 -7.04225,24.283993 4.78138,23.457203 10.375683,-0.72554 11.867693,-35.121771 11.867693,-35.121771" />
		<circle cx="71.52514" cy="75.73531" r="2.11667" fill="#ab94fc" />
	</g>
</svg>